STARTFONT 2.1
COMMENT  (c) Copyright Bigelow & Holmes 1986, 1985. Lucida is a registered
COMMENT  trademark of Bigelow & Holmes. See LEGAL NOTICE file for terms 
COMMENT  of the license. 
FONT -B&H-LucidaBright-DemiBold-R-Normal--19-190-75-75-P-114-ISO8859-1
SIZE 19 72 72
FONTBOUNDINGBOX 34 22 -11 -4
STARTPROPERTIES 19
COMMENT Begin LogicalFontDescription
FONTNAME_REGISTRY ""
FOUNDRY "B&H"
FAMILY_NAME "LucidaBright"
WEIGHT_NAME "DemiBold"
SLANT "R"
SETWIDTH_NAME "Normal"
ADD_STYLE_NAME ""
PIXEL_SIZE 19
POINT_SIZE 190
RESOLUTION_X 100
RESOLUTION_Y 100
SPACING "P"
AVERAGE_WIDTH "114"
CHARSET_REGISTRY "ISO8859"
CHARSET_ENCODING "1"
COMMENT END LogicalFontDescription
COPYRIGHT "Copyright Bigelow & Holmes 1986, 1985."
FONT_ASCENT 17
FONT_DESCENT 4
DEFAULT_CHAR 32
ENDPROPERTIES
CHARS 228
STARTCHAR space
ENCODING 32
SWIDTH 42 0
DWIDTH 6 0
BBX 1 1 0 0
BITMAP
00
ENDCHAR
STARTCHAR exclam
ENCODING 33
SWIDTH 42 0
DWIDTH 5 0
BBX 3 14 1 0
BITMAP
E0
E0
E0
E0
E0
E0
40
40
40
40
00
E0
E0
E0
ENDCHAR
STARTCHAR quotedbl
ENCODING 34
SWIDTH 42 0
DWIDTH 9 0
BBX 7 5 1 9
BITMAP
EE
EE
EE
44
44
ENDCHAR
STARTCHAR numbersign
ENCODING 35
SWIDTH 42 0
DWIDTH 13 0
BBX 12 14 0 0
BITMAP
0440
0440
0440
0880
7FF0
0880
0880
1100
1100
FFE0
1100
2200
2200
2200
ENDCHAR
STARTCHAR dollar
ENCODING 36
SWIDTH 42 0
DWIDTH 12 0
BBX 8 18 2 -2
BITMAP
08
08
7F
79
E9
E8
E8
78
3C
1E
0F
0F
0F
8F
CF
FE
08
08
ENDCHAR
STARTCHAR percent
ENCODING 37
SWIDTH 42 0
DWIDTH 14 0
BBX 15 14 0 0
BITMAP
3806
4408
C610
C620
C640
44C0
3980
0338
0644
04C6
08C6
10C6
2044
C038
ENDCHAR
STARTCHAR ampersand
ENCODING 38
SWIDTH 42 0
DWIDTH 15 0
BBX 14 14 0 0
BITMAP
0F00
39C0
39C0
39C0
1F80
0F00
3C7C
6618
E718
E390
E3F0
F1E0
70F0
1F7C
ENDCHAR
STARTCHAR quoteright
ENCODING 39
SWIDTH 42 0
DWIDTH 5 0
BBX 3 5 1 9
BITMAP
E0
E0
60
60
C0
ENDCHAR
STARTCHAR parenleft
ENCODING 40
SWIDTH 42 0
DWIDTH 6 0
BBX 5 18 1 -4
BITMAP
08
18
30
30
60
60
E0
E0
E0
E0
E0
E0
60
60
30
30
10
08
ENDCHAR
STARTCHAR parenright
ENCODING 41
SWIDTH 42 0
DWIDTH 6 0
BBX 5 18 1 -4
BITMAP
80
C0
60
60
30
30
38
38
38
38
38
38
30
30
60
60
40
80
ENDCHAR
STARTCHAR asterisk
ENCODING 42
SWIDTH 42 0
DWIDTH 8 0
BBX 7 7 1 7
BITMAP
10
52
D6
6C
28
6C
28
ENDCHAR
STARTCHAR plus
ENCODING 43
SWIDTH 42 0
DWIDTH 12 0
BBX 11 12 0 0
BITMAP
0400
0400
0400
0400
0400
0400
FFE0
0400
0400
0400
0400
0400
ENDCHAR
STARTCHAR comma
ENCODING 44
SWIDTH 42 0
DWIDTH 5 0
BBX 3 7 1 -4
BITMAP
E0
E0
E0
60
60
60
C0
ENDCHAR
STARTCHAR minus
ENCODING 45
SWIDTH 42 0
DWIDTH 12 0
BBX 11 1 0 5
BITMAP
FFE0
ENDCHAR
STARTCHAR period
ENCODING 46
SWIDTH 42 0
DWIDTH 5 0
BBX 3 3 1 0
BITMAP
E0
E0
E0
ENDCHAR
STARTCHAR slash
ENCODING 47
SWIDTH 42 0
DWIDTH 10 0
BBX 10 18 0 -4
BITMAP
00C0
0080
0080
0100
0100
0200
0200
0400
0400
0800
0800
1000
1000
2000
2000
4000
4000
C000
ENDCHAR
STARTCHAR zero
ENCODING 48
SWIDTH 42 0
DWIDTH 12 0
BBX 11 14 0 0
BITMAP
1F00
3180
71C0
60C0
E0E0
E0E0
E0E0
E0E0
E0E0
E0E0
60C0
71C0
3180
1F00
ENDCHAR
STARTCHAR one
ENCODING 49
SWIDTH 42 0
DWIDTH 12 0
BBX 7 14 3 0
BITMAP
F8
38
38
38
38
38
38
38
38
38
38
38
38
FE
ENDCHAR
STARTCHAR two
ENCODING 50
SWIDTH 42 0
DWIDTH 12 0
BBX 9 14 1 0
BITMAP
7E00
C700
8380
0380
0380
0300
0700
0C00
1800
2000
6000
7F80
FF80
FF80
ENDCHAR
STARTCHAR three
ENCODING 51
SWIDTH 42 0
DWIDTH 12 0
BBX 9 14 1 0
BITMAP
FE00
C700
8380
0380
0380
0700
7C00
0F00
0380
0380
0380
8380
8700
FC00
ENDCHAR
STARTCHAR four
ENCODING 52
SWIDTH 42 0
DWIDTH 12 0
BBX 12 14 0 0
BITMAP
01C0
03C0
07C0
0DC0
19C0
11C0
21C0
41C0
FFF0
FFF0
01C0
01C0
01C0
03F0
ENDCHAR
STARTCHAR five
ENCODING 53
SWIDTH 42 0
DWIDTH 12 0
BBX 8 14 2 0
BITMAP
FF
FF
80
80
80
F8
1E
0F
07
07
07
87
8E
F8
ENDCHAR
STARTCHAR six
ENCODING 54
SWIDTH 42 0
DWIDTH 12 0
BBX 10 14 1 0
BITMAP
1F80
3880
7080
6000
E000
EF00
F380
E1C0
E1C0
E1C0
61C0
61C0
3380
1F00
ENDCHAR
STARTCHAR seven
ENCODING 55
SWIDTH 42 0
DWIDTH 12 0
BBX 9 14 2 0
BITMAP
FF80
FF80
FF80
0100
0200
0600
0400
0C00
1800
1800
3000
3000
7000
7000
ENDCHAR
STARTCHAR eight
ENCODING 56
SWIDTH 42 0
DWIDTH 12 0
BBX 10 14 1 0
BITMAP
3F00
7380
E1C0
E1C0
F180
7F00
1E00
3F80
63C0
E1C0
E1C0
E1C0
7380
3F00
ENDCHAR
STARTCHAR nine
ENCODING 57
SWIDTH 42 0
DWIDTH 12 0
BBX 10 14 1 0
BITMAP
3E00
7300
E180
E180
E1C0
E1C0
E1C0
73C0
3DC0
01C0
0180
4380
4700
7E00
ENDCHAR
STARTCHAR colon
ENCODING 58
SWIDTH 42 0
DWIDTH 5 0
BBX 3 10 1 0
BITMAP
E0
E0
E0
00
00
00
00
E0
E0
E0
ENDCHAR
STARTCHAR semicolon
ENCODING 59
SWIDTH 42 0
DWIDTH 5 0
BBX 3 14 1 -4
BITMAP
E0
E0
E0
00
00
00
00
E0
E0
E0
60
60
60
80
ENDCHAR
STARTCHAR less
ENCODING 60
SWIDTH 42 0
DWIDTH 12 0
BBX 10 12 -1 0
BITMAP
0040
00C0
0300
0C00
3000
C000
C000
3000
0C00
0300
00C0
0040
ENDCHAR
STARTCHAR equal
ENCODING 61
SWIDTH 42 0
DWIDTH 12 0
BBX 11 5 0 3
BITMAP
FFE0
0000
0000
0000
FFE0
ENDCHAR
STARTCHAR greater
ENCODING 62
SWIDTH 42 0
DWIDTH 12 0
BBX 10 12 0 0
BITMAP
8000
C000
3000
0C00
0300
00C0
00C0
0300
0C00
3000
C000
8000
ENDCHAR
STARTCHAR question
ENCODING 63
SWIDTH 42 0
DWIDTH 10 0
BBX 9 14 0 0
BITMAP
FE00
C700
8380
0380
0300
0200
0400
1800
3800
3800
0000
3800
3800
3800
ENDCHAR
STARTCHAR at
ENCODING 64
SWIDTH 42 0
DWIDTH 16 0
BBX 14 14 2 0
BITMAP
03E0
0C30
1008
2384
4464
4C44
98C4
98C4
99C8
9BD8
8EE0
4000
2080
1F00
ENDCHAR
STARTCHAR A
ENCODING 65
SWIDTH 42 0
DWIDTH 15 0
BBX 15 14 0 0
BITMAP
0100
0380
0380
03C0
05C0
05E0
08E0
08F0
1070
1FF0
2038
2038
601C
F07E
ENDCHAR
STARTCHAR B
ENCODING 66
SWIDTH 42 0
DWIDTH 12 0
BBX 10 14 1 0
BITMAP
FF00
73C0
71C0
71C0
71C0
7380
7E00
7300
7180
71C0
71C0
71C0
7380
FF00
ENDCHAR
STARTCHAR C
ENCODING 67
SWIDTH 42 0
DWIDTH 13 0
BBX 12 14 1 0
BITMAP
0FE0
3C30
7010
7010
E000
E000
E000
E000
E000
E000
7000
7000
3C10
0FE0
ENDCHAR
STARTCHAR D
ENCODING 68
SWIDTH 42 0
DWIDTH 15 0
BBX 13 14 1 0
BITMAP
FF80
70E0
7070
7030
7038
7038
7038
7038
7038
7038
7030
7070
70E0
FF80
ENDCHAR
STARTCHAR E
ENCODING 69
SWIDTH 42 0
DWIDTH 11 0
BBX 10 14 1 0
BITMAP
FF80
7080
7080
7000
7000
7100
7F00
7100
7000
7000
7000
7040
70C0
FFC0
ENDCHAR
STARTCHAR F
ENCODING 70
SWIDTH 42 0
DWIDTH 11 0
BBX 9 14 1 0
BITMAP
FF80
7080
7080
7000
7000
7100
7F00
7100
7000
7000
7000
7000
7000
FC00
ENDCHAR
STARTCHAR G
ENCODING 71
SWIDTH 42 0
DWIDTH 14 0
BBX 13 14 1 0
BITMAP
0FF0
3C30
7010
7000
E000
E000
E000
E000
E0F8
E070
7070
7070
3870
0FF0
ENDCHAR
STARTCHAR H
ENCODING 72
SWIDTH 42 0
DWIDTH 15 0
BBX 13 14 1 0
BITMAP
F8F8
7070
7070
7070
7070
7070
7FF0
7070
7070
7070
7070
7070
7070
F8F8
ENDCHAR
STARTCHAR I
ENCODING 73
SWIDTH 42 0
DWIDTH 7 0
BBX 5 14 1 0
BITMAP
F8
70
70
70
70
70
70
70
70
70
70
70
70
F8
ENDCHAR
STARTCHAR J
ENCODING 74
SWIDTH 42 0
DWIDTH 9 0
BBX 8 18 0 -4
BITMAP
1F
0E
0E
0E
0E
0E
0E
0E
0E
0E
0E
0E
0E
0E
0E
8E
9C
F8
ENDCHAR
STARTCHAR K
ENCODING 75
SWIDTH 42 0
DWIDTH 14 0
BBX 14 14 0 0
BITMAP
F8F8
7020
7040
7180
7300
7600
7E00
7F00
7780
73C0
71E0
71E0
70F8
F9FC
ENDCHAR
STARTCHAR L
ENCODING 76
SWIDTH 42 0
DWIDTH 11 0
BBX 10 14 1 0
BITMAP
F800
7000
7000
7000
7000
7000
7000
7000
7000
7000
7000
7040
7040
FFC0
ENDCHAR
STARTCHAR M
ENCODING 77
SWIDTH 42 0
DWIDTH 17 0
BBX 16 14 1 0
BITMAP
F81F
781C
783C
5C3C
5C3C
5E5C
4E5C
4E9C
479C
479C
471C
431C
401C
E03F
ENDCHAR
STARTCHAR N
ENCODING 78
SWIDTH 42 0
DWIDTH 15 0
BBX 13 14 1 0
BITMAP
F038
7010
7810
7C10
5E10
5E10
4F10
4790
4390
41D0
41F0
40F0
4070
E030
ENDCHAR
STARTCHAR O
ENCODING 79
SWIDTH 42 0
DWIDTH 15 0
BBX 14 14 1 0
BITMAP
0FC0
3870
7038
7038
E01C
E01C
E01C
E01C
E01C
E01C
7038
7038
3870
0FC0
ENDCHAR
STARTCHAR P
ENCODING 80
SWIDTH 42 0
DWIDTH 12 0
BBX 10 14 1 0
BITMAP
FF00
7180
71C0
71C0
71C0
71C0
7380
7E00
7000
7000
7000
7000
7000
FC00
ENDCHAR
STARTCHAR Q
ENCODING 81
SWIDTH 42 0
DWIDTH 15 0
BBX 16 18 1 -4
BITMAP
0FC0
3870
7038
7038
E01C
E01C
E01C
E01C
E01C
E01C
7038
7038
3870
0FC0
0070
003C
001F
0004
ENDCHAR
STARTCHAR R
ENCODING 82
SWIDTH 42 0
DWIDTH 14 0
BBX 13 14 1 0
BITMAP
FF00
7180
71C0
71C0
71C0
71C0
7380
7F00
7700
7380
73C0
71E0
70F0
F8F8
ENDCHAR
STARTCHAR S
ENCODING 83
SWIDTH 42 0
DWIDTH 11 0
BBX 9 14 1 0
BITMAP
3F00
7100
E100
E000
F000
F800
7E00
1F00
0780
0380
0380
8380
C700
FE00
ENDCHAR
STARTCHAR T
ENCODING 84
SWIDTH 42 0
DWIDTH 14 0
BBX 13 14 0 0
BITMAP
FFF8
C708
8708
0700
0700
0700
0700
0700
0700
0700
0700
0700
0700
1FC0
ENDCHAR
STARTCHAR U
ENCODING 85
SWIDTH 42 0
DWIDTH 14 0
BBX 14 14 0 0
BITMAP
F83C
7010
7010
7010
7010
7010
7010
7010
7010
7010
7010
7030
3820
1FC0
ENDCHAR
STARTCHAR V
ENCODING 86
SWIDTH 42 0
DWIDTH 14 0
BBX 14 14 0 0
BITMAP
FC3C
7818
3810
3810
1C20
1C20
1E60
0E40
0E40
0780
0780
0380
0300
0300
ENDCHAR
STARTCHAR W
ENCODING 87
SWIDTH 42 0
DWIDTH 18 0
BBX 18 14 0 0
BITMAP
F843C0
706080
78E100
38E100
38F100
397200
3D7200
1D7A00
1E3C00
1E3C00
0E3C00
0C1C00
0C1800
0C1800
ENDCHAR
STARTCHAR X
ENCODING 88
SWIDTH 42 0
DWIDTH 13 0
BBX 13 14 0 0
BITMAP
FC78
7830
3C20
1C40
1EC0
0E80
0F00
0780
0B80
19C0
11E0
20E0
60F0
F1F8
ENDCHAR
STARTCHAR Y
ENCODING 89
SWIDTH 42 0
DWIDTH 14 0
BBX 13 14 0 0
BITMAP
FC38
7030
3820
3C60
1C40
1E80
0F80
0700
0700
0700
0700
0700
0700
1F80
ENDCHAR
STARTCHAR Z
ENCODING 90
SWIDTH 42 0
DWIDTH 12 0
BBX 10 14 1 0
BITMAP
7FC0
43C0
4380
0780
0700
0F00
0E00
1C00
3C00
3800
7800
7040
F0C0
FFC0
ENDCHAR
STARTCHAR bracketleft
ENCODING 91
SWIDTH 42 0
DWIDTH 6 0
BBX 5 18 1 -4
BITMAP
F8
E0
E0
E0
E0
E0
E0
E0
E0
E0
E0
E0
E0
E0
E0
E0
E0
F8
ENDCHAR
STARTCHAR backslash
ENCODING 92
SWIDTH 42 0
DWIDTH 10 0
BBX 10 18 0 -4
BITMAP
C000
4000
6000
2000
2000
1000
1000
0800
0800
0400
0400
0200
0200
0100
0100
0080
0080
0040
ENDCHAR
STARTCHAR bracketright
ENCODING 93
SWIDTH 42 0
DWIDTH 6 0
BBX 5 18 0 -4
BITMAP
F8
38
38
38
38
38
38
38
38
38
38
38
38
38
38
38
38
F8
ENDCHAR
STARTCHAR asciicircum
ENCODING 94
SWIDTH 42 0
DWIDTH 12 0
BBX 11 12 0 2
BITMAP
0400
0400
0400
0A00
0A00
1100
1100
2080
2080
4040
4040
C060
ENDCHAR
STARTCHAR underscore
ENCODING 95
SWIDTH 42 0
DWIDTH 9 0
BBX 8 1 1 -2
BITMAP
FF
ENDCHAR
STARTCHAR quoteleft
ENCODING 96
SWIDTH 42 0
DWIDTH 5 0
BBX 3 5 1 9
BITMAP
60
C0
C0
E0
E0
ENDCHAR
STARTCHAR a
ENCODING 97
SWIDTH 42 0
DWIDTH 11 0
BBX 10 10 0 0
BITMAP
3E00
6380
4380
0380
3F80
F380
E380
E380
E380
7DC0
ENDCHAR
STARTCHAR b
ENCODING 98
SWIDTH 42 0
DWIDTH 12 0
BBX 11 14 0 0
BITMAP
F000
7000
7000
7000
7380
77C0
79E0
70E0
70E0
70E0
70E0
70C0
79C0
7F80
ENDCHAR
STARTCHAR c
ENCODING 99
SWIDTH 42 0
DWIDTH 10 0
BBX 9 10 0 0
BITMAP
1F80
7080
6080
E000
E000
E000
E000
7000
7880
1F80
ENDCHAR
STARTCHAR d
ENCODING 100
SWIDTH 42 0
DWIDTH 12 0
BBX 11 14 1 0
BITMAP
07C0
01C0
01C0
01C0
3DC0
73C0
61C0
E1C0
E1C0
E1C0
E1C0
F3C0
7DC0
39E0
ENDCHAR
STARTCHAR e
ENCODING 101
SWIDTH 42 0
DWIDTH 11 0
BBX 9 10 1 0
BITMAP
1E00
6300
6380
E380
FF80
E000
E000
7000
7880
1F80
ENDCHAR
STARTCHAR f
ENCODING 102
SWIDTH 42 0
DWIDTH 8 0
BBX 9 14 0 0
BITMAP
1F80
3880
3880
3800
FF00
3800
3800
3800
3800
3800
3800
3800
3800
FC00
ENDCHAR
STARTCHAR g
ENCODING 103
SWIDTH 42 0
DWIDTH 11 0
BBX 11 14 0 -4
BITMAP
1FE0
3360
7380
7380
7380
3300
1E00
3000
7F80
3FC0
61C0
E1C0
F380
3F00
ENDCHAR
STARTCHAR h
ENCODING 104
SWIDTH 42 0
DWIDTH 12 0
BBX 12 14 0 0
BITMAP
F800
3800
3800
3800
39C0
3BE0
3CE0
38E0
38E0
38E0
38E0
38E0
38E0
FDF0
ENDCHAR
STARTCHAR i
ENCODING 105
SWIDTH 42 0
DWIDTH 6 0
BBX 6 14 0 0
BITMAP
38
38
38
00
F8
38
38
38
38
38
38
38
38
FC
ENDCHAR
STARTCHAR j
ENCODING 106
SWIDTH 42 0
DWIDTH 7 0
BBX 6 18 0 -4
BITMAP
1C
1C
1C
00
3C
1C
1C
1C
1C
1C
1C
1C
1C
1C
1C
9C
9C
F8
ENDCHAR
STARTCHAR k
ENCODING 107
SWIDTH 42 0
DWIDTH 12 0
BBX 12 14 0 0
BITMAP
F800
3800
3800
3800
38E0
38C0
3980
3900
3B00
3F80
3B80
3BC0
39E0
FCF0
ENDCHAR
STARTCHAR l
ENCODING 108
SWIDTH 42 0
DWIDTH 6 0
BBX 6 14 0 0
BITMAP
F8
38
38
38
38
38
38
38
38
38
38
38
38
FC
ENDCHAR
STARTCHAR m
ENCODING 109
SWIDTH 42 0
DWIDTH 18 0
BBX 18 10 0 0
BITMAP
FBCF00
3FFF80
3CF380
38E380
38E380
38E380
38E380
38E380
38E380
FDF7C0
ENDCHAR
STARTCHAR n
ENCODING 110
SWIDTH 42 0
DWIDTH 12 0
BBX 12 10 0 0
BITMAP
F9C0
7BE0
3CE0
38E0
38E0
38E0
38E0
38E0
38E0
FDF0
ENDCHAR
STARTCHAR o
ENCODING 111
SWIDTH 42 0
DWIDTH 12 0
BBX 11 10 0 0
BITMAP
1F00
71C0
60C0
E0E0
E0E0
E0E0
E0E0
60C0
71C0
1F00
ENDCHAR
STARTCHAR p
ENCODING 112
SWIDTH 42 0
DWIDTH 12 0
BBX 11 14 0 -4
BITMAP
F380
77C0
79E0
70E0
70E0
70E0
70E0
70C0
79C0
7780
7000
7000
7000
F800
ENDCHAR
STARTCHAR q
ENCODING 113
SWIDTH 42 0
DWIDTH 12 0
BBX 11 14 1 -4
BITMAP
3DC0
73C0
61C0
E1C0
E1C0
E1C0
E1C0
F3C0
7DC0
39C0
01C0
01C0
01C0
07E0
ENDCHAR
STARTCHAR r
ENCODING 114
SWIDTH 42 0
DWIDTH 9 0
BBX 9 10 0 0
BITMAP
F980
3F80
3C80
3800
3800
3800
3800
3800
3800
FE00
ENDCHAR
STARTCHAR s
ENCODING 115
SWIDTH 42 0
DWIDTH 10 0
BBX 8 10 1 0
BITMAP
3E
E2
E2
F0
FE
7F
0F
87
87
FC
ENDCHAR
STARTCHAR t
ENCODING 116
SWIDTH 42 0
DWIDTH 7 0
BBX 6 13 1 0
BITMAP
30
70
70
FC
70
70
70
70
70
70
70
70
3C
ENDCHAR
STARTCHAR u
ENCODING 117
SWIDTH 42 0
DWIDTH 12 0
BBX 11 10 1 0
BITMAP
F7C0
71C0
71C0
71C0
71C0
71C0
71C0
73C0
7DC0
39E0
ENDCHAR
STARTCHAR v
ENCODING 118
SWIDTH 42 0
DWIDTH 12 0
BBX 12 10 0 0
BITMAP
F8F0
7860
3840
3840
1C80
1D80
0F00
0F00
0600
0600
ENDCHAR
STARTCHAR w
ENCODING 119
SWIDTH 42 0
DWIDTH 17 0
BBX 17 10 0 0
BITMAP
F84780
70E300
78E200
39F200
397400
1F7400
1E3C00
1E3800
0C3800
0C1000
ENDCHAR
STARTCHAR x
ENCODING 120
SWIDTH 42 0
DWIDTH 12 0
BBX 12 10 0 0
BITMAP
FCF0
7840
3C80
1F00
0F00
0F00
1F80
13C0
61E0
F3F0
ENDCHAR
STARTCHAR y
ENCODING 121
SWIDTH 42 0
DWIDTH 12 0
BBX 12 14 0 -4
BITMAP
FCF0
7020
3840
3840
1C80
1C80
1F00
0F00
0E00
0600
0400
0800
1800
3000
ENDCHAR
STARTCHAR z
ENCODING 122
SWIDTH 42 0
DWIDTH 11 0
BBX 9 10 1 0
BITMAP
FF80
C780
8F00
0E00
1E00
3C00
7800
7080
F080
FF80
ENDCHAR
STARTCHAR braceleft
ENCODING 123
SWIDTH 42 0
DWIDTH 7 0
BBX 5 18 1 -4
BITMAP
38
70
70
70
70
70
70
70
E0
60
70
70
70
70
70
70
70
38
ENDCHAR
STARTCHAR bar
ENCODING 124
SWIDTH 42 0
DWIDTH 5 0
BBX 1 18 2 -4
BITMAP
80
80
80
80
80
80
80
80
80
80
80
80
80
80
80
80
80
80
ENDCHAR
STARTCHAR braceright
ENCODING 125
SWIDTH 42 0
DWIDTH 7 0
BBX 5 18 1 -4
BITMAP
E0
70
70
70
70
70
70
70
38
30
70
70
70
70
70
70
70
E0
ENDCHAR
STARTCHAR asciitilde
ENCODING 126
SWIDTH 42 0
DWIDTH 12 0
BBX 11 4 0 3
BITMAP
7020
4C20
8640
81C0
ENDCHAR
STARTCHAR exclamdown
ENCODING 161
SWIDTH 42 0
DWIDTH 5 0
BBX 3 14 1 -4
BITMAP
E0
E0
E0
00
40
40
40
40
E0
E0
E0
E0
E0
E0
ENDCHAR
STARTCHAR cent
ENCODING 162
SWIDTH 42 0
DWIDTH 12 0
BBX 9 14 1 0
BITMAP
0400
0400
1F80
7480
6480
E400
E400
E400
E400
6400
7480
1F80
0400
0400
ENDCHAR
STARTCHAR sterling
ENCODING 163
SWIDTH 42 0
DWIDTH 12 0
BBX 9 14 2 0
BITMAP
0F80
1880
3880
3800
3800
3800
FE00
3800
3800
3800
2000
FF80
FF80
FF80
ENDCHAR
STARTCHAR currency
ENCODING 164
SWIDTH 42 0
DWIDTH 12 0
BBX 12 12 0 1
BITMAP
8010
4020
3FC0
39C0
30C0
2040
2040
30C0
39C0
3FC0
4020
8010
ENDCHAR
STARTCHAR yen
ENCODING 165
SWIDTH 42 0
DWIDTH 12 0
BBX 13 14 0 0
BITMAP
FC78
7810
3C20
1E40
0E80
0F00
3FC0
0700
0700
3FC0
0700
0700
0700
0F80
ENDCHAR
STARTCHAR brokenbar
ENCODING 166
SWIDTH 42 0
DWIDTH 5 0
BBX 1 18 2 -4
BITMAP
80
80
80
80
80
80
80
80
00
00
80
80
80
80
80
80
80
80
ENDCHAR
STARTCHAR section
ENCODING 167
SWIDTH 42 0
DWIDTH 12 0
BBX 9 18 2 -4
BITMAP
3F00
7100
E100
E000
F000
7E00
3F00
CF80
C380
E180
F980
7F00
3F00
0F80
0380
8380
C700
FE00
ENDCHAR
STARTCHAR dieresis
ENCODING 168
SWIDTH 42 0
DWIDTH 12 0
BBX 6 2 3 12
BITMAP
CC
CC
ENDCHAR
STARTCHAR copyright
ENCODING 169
SWIDTH 42 0
DWIDTH 16 0
BBX 15 14 1 0
BITMAP
07C0
1830
2008
43E4
4644
8C02
8C02
8C02
8C02
4644
43C4
2008
1830
07C0
ENDCHAR
STARTCHAR ordfeminine
ENCODING 170
SWIDTH 42 0
DWIDTH 9 0
BBX 8 8 1 6
BITMAP
FC
8E
0E
7E
EE
EE
EE
77
ENDCHAR
STARTCHAR guillemotleft
ENCODING 171
SWIDTH 42 0
DWIDTH 11 0
BBX 9 8 1 1
BITMAP
1880
3100
7300
EE00
E600
7300
3100
1880
ENDCHAR
STARTCHAR logicalnot
ENCODING 172
SWIDTH 42 0
DWIDTH 12 0
BBX 11 5 0 3
BITMAP
FFE0
0020
0020
0020
0020
ENDCHAR
STARTCHAR hyphen
ENCODING 173
SWIDTH 42 0
DWIDTH 5 0
BBX 4 2 1 5
BITMAP
F0
F0
ENDCHAR
STARTCHAR registered
ENCODING 174
SWIDTH 42 0
DWIDTH 12 0
BBX 9 9 1 5
BITMAP
3E00
6300
DF80
9280
9C80
9480
D780
6300
3E00
ENDCHAR
STARTCHAR macron
ENCODING 175
SWIDTH 42 0
DWIDTH 12 0
BBX 6 1 3 13
BITMAP
FC
ENDCHAR
STARTCHAR degree
ENCODING 176
SWIDTH 42 0
DWIDTH 5 0
BBX 3 3 1 11
BITMAP
E0
A0
E0
ENDCHAR
STARTCHAR plusminus
ENCODING 177
SWIDTH 42 0
DWIDTH 12 0
BBX 11 12 0 0
BITMAP
0400
0400
0400
0400
FFE0
0400
0400
0400
0400
0000
0000
FFE0
ENDCHAR
STARTCHAR twosuperior
ENCODING 178
SWIDTH 42 0
DWIDTH 7 0
BBX 6 9 -10 5
BITMAP
F8
8C
0C
0C
18
20
40
FC
FC
ENDCHAR
STARTCHAR threesuperior
ENCODING 179
SWIDTH 42 0
DWIDTH 7 0
BBX 6 9 -10 5
BITMAP
F8
8C
0C
08
70
1C
0C
8C
F8
ENDCHAR
STARTCHAR acute
ENCODING 180
SWIDTH 42 0
DWIDTH 12 0
BBX 5 3 4 11
BITMAP
38
60
C0
ENDCHAR
STARTCHAR mu
ENCODING 181
SWIDTH 42 0
DWIDTH 13 0
BBX 12 14 1 -4
BITMAP
F9E0
38E0
38E0
38E0
38E0
38E0
38E0
39E0
3FE0
3EF0
3800
3800
3800
3800
ENDCHAR
STARTCHAR paragraph
ENCODING 182
SWIDTH 42 0
DWIDTH 12 0
BBX 8 18 1 -4
BITMAP
7F
F9
F9
F9
F9
79
39
09
09
09
09
09
09
09
09
09
09
09
ENDCHAR
STARTCHAR periodcentered
ENCODING 183
SWIDTH 42 0
DWIDTH 12 0
BBX 2 3 5 4
BITMAP
C0
C0
C0
ENDCHAR
STARTCHAR cedilla
ENCODING 184
SWIDTH 42 0
DWIDTH 12 0
BBX 3 4 5 -4
BITMAP
40
E0
60
E0
ENDCHAR
STARTCHAR onesuperior
ENCODING 185
SWIDTH 42 0
DWIDTH 7 0
BBX 4 9 -11 5
BITMAP
E0
60
60
60
60
60
60
60
F0
ENDCHAR
STARTCHAR ordmasculine
ENCODING 186
SWIDTH 42 0
DWIDTH 9 0
BBX 8 8 1 6
BITMAP
3C
66
E7
E7
E7
E7
66
3C
ENDCHAR
STARTCHAR guillemotright
ENCODING 187
SWIDTH 42 0
DWIDTH 11 0
BBX 9 8 1 1
BITMAP
8800
4400
6600
3300
3B80
6600
4400
8800
ENDCHAR
STARTCHAR onequarter
ENCODING 188
SWIDTH 42 0
DWIDTH 15 0
BBX 14 14 4 0
BITMAP
E070
6060
60C0
61C0
6180
6318
6738
6E58
FC98
19FC
39FC
3018
6018
E03C
ENDCHAR
STARTCHAR onehalf
ENCODING 189
SWIDTH 42 0
DWIDTH 15 0
BBX 13 14 4 0
BITMAP
E070
6060
60C0
61C0
6180
63F0
6718
6E18
FC18
1830
3840
3080
61F8
E1F8
ENDCHAR
STARTCHAR threequarters
ENCODING 190
SWIDTH 42 0
DWIDTH 15 0
BBX 15 14 5 0
BITMAP
F838
8C30
0C60
08E0
70C0
1D8C
0F9C
8F2C
FE4C
0CFE
1CFE
180C
300C
701E
ENDCHAR
STARTCHAR questiondown
ENCODING 191
SWIDTH 42 0
DWIDTH 10 0
BBX 9 14 0 -4
BITMAP
0E00
0E00
0E00
0000
0E00
0E00
0C00
1000
3000
6000
E000
E080
7180
3F80
ENDCHAR
STARTCHAR Agrave
ENCODING 192
SWIDTH 42 0
DWIDTH 15 0
BBX 15 18 0 0
BITMAP
0E00
0300
0180
0000
0100
0380
0380
03C0
05C0
05E0
08E0
08F0
1070
1FF0
2038
2038
601C
F07E
ENDCHAR
STARTCHAR Aacute
ENCODING 193
SWIDTH 42 0
DWIDTH 15 0
BBX 15 18 0 0
BITMAP
00E0
0180
0300
0000
0100
0380
0380
03C0
05C0
05E0
08E0
08F0
1070
1FF0
2038
2038
601C
F07E
ENDCHAR
STARTCHAR Acircumflex
ENCODING 194
SWIDTH 42 0
DWIDTH 15 0
BBX 15 18 0 0
BITMAP
0180
03C0
0660
0000
0100
0380
0380
03C0
05C0
05E0
08E0
08F0
1070
1FF0
2038
2038
601C
F07E
ENDCHAR
STARTCHAR Atilde
ENCODING 195
SWIDTH 42 0
DWIDTH 15 0
BBX 15 18 0 0
BITMAP
0320
07E0
04C0
0000
0100
0380
0380
03C0
05C0
05E0
08E0
08F0
1070
1FF0
2038
2038
601C
F07E
ENDCHAR
STARTCHAR Adieresis
ENCODING 196
SWIDTH 42 0
DWIDTH 15 0
BBX 15 17 0 0
BITMAP
0660
0660
0000
0100
0380
0380
03C0
05C0
05E0
08E0
08F0
1070
1FF0
2038
2038
601C
F07E
ENDCHAR
STARTCHAR Aring
ENCODING 197
SWIDTH 42 0
DWIDTH 15 0
BBX 15 18 0 0
BITMAP
0380
0280
0380
0000
0100
0380
0380
03C0
05C0
05E0
08E0
08F0
1070
1FF0
2038
2038
601C
F07E
ENDCHAR
STARTCHAR AE
ENCODING 198
SWIDTH 42 0
DWIDTH 18 0
BBX 18 14 0 0
BITMAP
007FC0
00F040
01F040
017000
027000
027080
047F80
0C7080
087000
1FF000
307000
207000
407040
E1FFC0
ENDCHAR
STARTCHAR Ccedilla
ENCODING 199
SWIDTH 42 0
DWIDTH 13 0
BBX 12 18 1 -4
BITMAP
0FE0
3C30
7010
7010
E000
E000
E000
E000
E000
E000
7000
7000
3C10
0FE0
0200
0700
0300
0700
ENDCHAR
STARTCHAR Egrave
ENCODING 200
SWIDTH 42 0
DWIDTH 11 0
BBX 10 18 1 0
BITMAP
3800
0C00
0600
0000
FF80
7080
7080
7000
7000
7100
7F00
7100
7000
7000
7000
7040
70C0
FFC0
ENDCHAR
STARTCHAR Eacute
ENCODING 201
SWIDTH 42 0
DWIDTH 11 0
BBX 10 18 1 0
BITMAP
0700
0C00
1800
0000
FF80
7080
7080
7000
7000
7100
7F00
7100
7000
7000
7000
7040
70C0
FFC0
ENDCHAR
STARTCHAR Ecircumflex
ENCODING 202
SWIDTH 42 0
DWIDTH 11 0
BBX 10 18 1 0
BITMAP
0C00
1E00
3300
0000
FF80
7080
7080
7000
7000
7100
7F00
7100
7000
7000
7000
7040
70C0
FFC0
ENDCHAR
STARTCHAR Edieresis
ENCODING 203
SWIDTH 42 0
DWIDTH 11 0
BBX 10 17 1 0
BITMAP
3300
3300
0000
FF80
7080
7080
7000
7000
7100
7F00
7100
7000
7000
7000
7040
70C0
FFC0
ENDCHAR
STARTCHAR Igrave
ENCODING 204
SWIDTH 42 0
DWIDTH 7 0
BBX 6 18 2 0
BITMAP
E0
30
18
00
7C
38
38
38
38
38
38
38
38
38
38
38
38
7C
ENDCHAR
STARTCHAR Iacute
ENCODING 205
SWIDTH 42 0
DWIDTH 7 0
BBX 6 18 1 0
BITMAP
1C
30
60
00
F8
70
70
70
70
70
70
70
70
70
70
70
70
F8
ENDCHAR
STARTCHAR Icircumflex
ENCODING 206
SWIDTH 42 0
DWIDTH 7 0
BBX 6 18 2 0
BITMAP
30
78
CC
00
7C
38
38
38
38
38
38
38
38
38
38
38
38
7C
ENDCHAR
STARTCHAR Idieresis
ENCODING 207
SWIDTH 42 0
DWIDTH 7 0
BBX 6 17 2 0
BITMAP
CC
CC
00
7C
38
38
38
38
38
38
38
38
38
38
38
38
7C
ENDCHAR
STARTCHAR Eth
ENCODING 208
SWIDTH 42 0
DWIDTH 15 0
BBX 14 14 0 0
BITMAP
FFC0
3870
3838
3818
381C
381C
FF1C
381C
381C
381C
3818
3838
3870
FFC0
ENDCHAR
STARTCHAR Ntilde
ENCODING 209
SWIDTH 42 0
DWIDTH 15 0
BBX 13 18 1 0
BITMAP
0640
0FC0
0980
0000
F038
7010
7810
7C10
5E10
5E10
4F10
4790
4390
41D0
41F0
40F0
4070
E030
ENDCHAR
STARTCHAR Ograve
ENCODING 210
SWIDTH 42 0
DWIDTH 15 0
BBX 14 18 1 0
BITMAP
0E00
0300
0180
0000
0FC0
3870
7038
7038
E01C
E01C
E01C
E01C
E01C
E01C
7038
7038
3870
0FC0
ENDCHAR
STARTCHAR Oacute
ENCODING 211
SWIDTH 42 0
DWIDTH 15 0
BBX 14 18 1 0
BITMAP
01C0
0300
0600
0000
0FC0
3870
7038
7038
E01C
E01C
E01C
E01C
E01C
E01C
7038
7038
3870
0FC0
ENDCHAR
STARTCHAR Ocircumflex
ENCODING 212
SWIDTH 42 0
DWIDTH 15 0
BBX 14 18 1 0
BITMAP
0300
0780
0CC0
0000
0FC0
3870
7038
7038
E01C
E01C
E01C
E01C
E01C
E01C
7038
7038
3870
0FC0
ENDCHAR
STARTCHAR Otilde
ENCODING 213
SWIDTH 42 0
DWIDTH 15 0
BBX 14 18 1 0
BITMAP
0640
0FC0
0980
0000
0FC0
3870
7038
7038
E01C
E01C
E01C
E01C
E01C
E01C
7038
7038
3870
0FC0
ENDCHAR
STARTCHAR Odieresis
ENCODING 214
SWIDTH 42 0
DWIDTH 15 0
BBX 14 17 1 0
BITMAP
0CC0
0CC0
0000
0FC0
3870
7038
7038
E01C
E01C
E01C
E01C
E01C
E01C
7038
7038
3870
0FC0
ENDCHAR
STARTCHAR multiply
ENCODING 215
SWIDTH 42 0
DWIDTH 12 0
BBX 11 12 0 0
BITMAP
C020
4060
2080
1100
1B00
0E00
0E00
1B00
1100
2080
C040
8060
ENDCHAR
STARTCHAR Oslash
ENCODING 216
SWIDTH 42 0
DWIDTH 15 0
BBX 14 14 1 0
BITMAP
0FCC
3878
7038
7038
E05C
E09C
E11C
E21C
E41C
E81C
7038
7038
7870
CFC0
ENDCHAR
STARTCHAR Ugrave
ENCODING 217
SWIDTH 42 0
DWIDTH 14 0
BBX 14 18 0 0
BITMAP
0E00
0300
0180
0000
F83C
7010
7010
7010
7010
7010
7010
7010
7010
7010
7010
7030
3820
1FC0
ENDCHAR
STARTCHAR Uacute
ENCODING 218
SWIDTH 42 0
DWIDTH 14 0
BBX 14 18 0 0
BITMAP
01C0
0300
0600
0000
F83C
7010
7010
7010
7010
7010
7010
7010
7010
7010
7010
7030
3820
1FC0
ENDCHAR
STARTCHAR Ucircumflex
ENCODING 219
SWIDTH 42 0
DWIDTH 14 0
BBX 14 18 0 0
BITMAP
0300
0780
0CC0
0000
F83C
7010
7010
7010
7010
7010
7010
7010
7010
7010
7010
7030
3820
1FC0
ENDCHAR
STARTCHAR Udieresis
ENCODING 220
SWIDTH 42 0
DWIDTH 14 0
BBX 14 17 0 0
BITMAP
0CC0
0CC0
0000
F83C
7010
7010
7010
7010
7010
7010
7010
7010
7010
7010
7030
3820
1FC0
ENDCHAR
STARTCHAR Yacute
ENCODING 221
SWIDTH 42 0
DWIDTH 14 0
BBX 13 18 0 0
BITMAP
01C0
0300
0600
0000
FC38
7030
3820
3C60
1C40
1E80
0F80
0700
0700
0700
0700
0700
0700
1F80
ENDCHAR
STARTCHAR Thorn
ENCODING 222
SWIDTH 42 0
DWIDTH 12 0
BBX 10 14 1 0
BITMAP
F800
7000
7000
7F00
7180
71C0
71C0
71C0
71C0
7380
7E00
7000
7000
F800
ENDCHAR
STARTCHAR germandbls
ENCODING 223
SWIDTH 42 0
DWIDTH 13 0
BBX 12 14 1 0
BITMAP
1F80
31C0
71C0
7180
7300
7200
7700
7780
73E0
71F0
70F0
7270
7270
FBE0
ENDCHAR
STARTCHAR agrave
ENCODING 224
SWIDTH 42 0
DWIDTH 11 0
BBX 10 14 0 0
BITMAP
3800
0C00
0600
0000
3E00
6380
4380
0380
3F80
F380
E380
E380
E380
7DC0
ENDCHAR
STARTCHAR aacute
ENCODING 225
SWIDTH 42 0
DWIDTH 11 0
BBX 10 14 0 0
BITMAP
0700
0C00
1800
0000
3E00
6380
4380
0380
3F80
F380
E380
E380
E380
7DC0
ENDCHAR
STARTCHAR acircumflex
ENCODING 226
SWIDTH 42 0
DWIDTH 11 0
BBX 10 14 0 0
BITMAP
0C00
1E00
3300
0000
3E00
6380
4380
0380
3F80
F380
E380
E380
E380
7DC0
ENDCHAR
STARTCHAR atilde
ENCODING 227
SWIDTH 42 0
DWIDTH 11 0
BBX 10 14 0 0
BITMAP
1900
3F00
2600
0000
3E00
6380
4380
0380
3F80
F380
E380
E380
E380
7DC0
ENDCHAR
STARTCHAR adieresis
ENCODING 228
SWIDTH 42 0
DWIDTH 11 0
BBX 10 13 0 0
BITMAP
3300
3300
0000
3E00
6380
4380
0380
3F80
F380
E380
E380
E380
7DC0
ENDCHAR
STARTCHAR aring
ENCODING 229
SWIDTH 42 0
DWIDTH 11 0
BBX 10 14 0 0
BITMAP
1C00
1400
1C00
0000
3E00
6380
4380
0380
3F80
F380
E380
E380
E380
7DC0
ENDCHAR
STARTCHAR ae
ENCODING 230
SWIDTH 42 0
DWIDTH 16 0
BBX 15 10 0 0
BITMAP
3E78
638C
038E
038E
3FFE
F380
E380
E3C0
F3E2
7CFE
ENDCHAR
STARTCHAR ccedilla
ENCODING 231
SWIDTH 42 0
DWIDTH 10 0
BBX 9 14 0 -4
BITMAP
1F80
7080
6080
E000
E000
E000
E000
7000
7880
1F80
0800
1C00
0C00
1C00
ENDCHAR
STARTCHAR egrave
ENCODING 232
SWIDTH 42 0
DWIDTH 11 0
BBX 9 14 1 0
BITMAP
3800
0C00
0600
0000
1E00
6300
6380
E380
FF80
E000
E000
7000
7880
1F80
ENDCHAR
STARTCHAR eacute
ENCODING 233
SWIDTH 42 0
DWIDTH 11 0
BBX 9 14 1 0
BITMAP
0700
0C00
1800
0000
1E00
6300
6380
E380
FF80
E000
E000
7000
7880
1F80
ENDCHAR
STARTCHAR ecircumflex
ENCODING 234
SWIDTH 42 0
DWIDTH 11 0
BBX 9 14 1 0
BITMAP
0C00
1E00
3300
0000
1E00
6300
6380
E380
FF80
E000
E000
7000
7880
1F80
ENDCHAR
STARTCHAR edieresis
ENCODING 235
SWIDTH 42 0
DWIDTH 11 0
BBX 9 13 1 0
BITMAP
3300
3300
0000
1E00
6300
6380
E380
FF80
E000
E000
7000
7880
1F80
ENDCHAR
STARTCHAR igrave
ENCODING 236
SWIDTH 42 0
DWIDTH 6 0
BBX 6 14 0 0
BITMAP
E0
30
18
00
F8
38
38
38
38
38
38
38
38
FC
ENDCHAR
STARTCHAR iacute
ENCODING 237
SWIDTH 42 0
DWIDTH 6 0
BBX 6 14 0 0
BITMAP
1C
30
60
00
F8
38
38
38
38
38
38
38
38
FC
ENDCHAR
STARTCHAR icircumflex
ENCODING 238
SWIDTH 42 0
DWIDTH 6 0
BBX 6 14 0 0
BITMAP
30
78
CC
00
F8
38
38
38
38
38
38
38
38
FC
ENDCHAR
STARTCHAR idieresis
ENCODING 239
SWIDTH 42 0
DWIDTH 6 0
BBX 6 13 0 0
BITMAP
CC
CC
00
F8
38
38
38
38
38
38
38
38
FC
ENDCHAR
STARTCHAR eth
ENCODING 240
SWIDTH 42 0
DWIDTH 12 0
BBX 11 16 1 0
BITMAP
0300
0600
FC00
1F00
3780
43C0
1FC0
71E0
60E0
E0E0
E0E0
E0E0
E0E0
60C0
7180
1F00
ENDCHAR
STARTCHAR ntilde
ENCODING 241
SWIDTH 42 0
DWIDTH 12 0
BBX 12 14 0 0
BITMAP
0C80
1F80
1300
0000
F9C0
7BE0
3CE0
38E0
38E0
38E0
38E0
38E0
38E0
FDF0
ENDCHAR
STARTCHAR ograve
ENCODING 242
SWIDTH 42 0
DWIDTH 12 0
BBX 11 14 0 0
BITMAP
3800
0C00
0600
0000
1F00
71C0
60C0
E0E0
E0E0
E0E0
E0E0
60C0
71C0
1F00
ENDCHAR
STARTCHAR oacute
ENCODING 243
SWIDTH 42 0
DWIDTH 12 0
BBX 11 14 0 0
BITMAP
0380
0600
0C00
0000
1F00
71C0
60C0
E0E0
E0E0
E0E0
E0E0
60C0
71C0
1F00
ENDCHAR
STARTCHAR ocircumflex
ENCODING 244
SWIDTH 42 0
DWIDTH 12 0
BBX 11 14 0 0
BITMAP
0C00
1E00
3300
0000
1F00
71C0
60C0
E0E0
E0E0
E0E0
E0E0
60C0
71C0
1F00
ENDCHAR
STARTCHAR otilde
ENCODING 245
SWIDTH 42 0
DWIDTH 12 0
BBX 11 14 0 0
BITMAP
1900
3F00
2600
0000
1F00
71C0
60C0
E0E0
E0E0
E0E0
E0E0
60C0
71C0
1F00
ENDCHAR
STARTCHAR odieresis
ENCODING 246
SWIDTH 42 0
DWIDTH 12 0
BBX 11 13 0 0
BITMAP
3300
3300
0000
1F00
71C0
60C0
E0E0
E0E0
E0E0
E0E0
60C0
71C0
1F00
ENDCHAR
STARTCHAR divide
ENCODING 247
SWIDTH 42 0
DWIDTH 12 0
BBX 10 10 1 0
BITMAP
0C00
0C00
0000
0000
0000
FFC0
0000
0000
0C00
0C00
ENDCHAR
STARTCHAR oslash
ENCODING 248
SWIDTH 42 0
DWIDTH 12 0
BBX 12 10 0 0
BITMAP
0FB0
38E0
3060
71F0
7370
7670
7870
3060
38E0
CF80
ENDCHAR
STARTCHAR ugrave
ENCODING 249
SWIDTH 42 0
DWIDTH 12 0
BBX 11 14 1 0
BITMAP
1C00
0600
0300
0000
F7C0
71C0
71C0
71C0
71C0
71C0
71C0
73C0
7DC0
39E0
ENDCHAR
STARTCHAR uacute
ENCODING 250
SWIDTH 42 0
DWIDTH 12 0
BBX 11 14 1 0
BITMAP
0380
0600
0C00
0000
F7C0
71C0
71C0
71C0
71C0
71C0
71C0
73C0
7DC0
39E0
ENDCHAR
STARTCHAR ucircumflex
ENCODING 251
SWIDTH 42 0
DWIDTH 12 0
BBX 11 14 1 0
BITMAP
0600
0F00
1980
0000
F7C0
71C0
71C0
71C0
71C0
71C0
71C0
73C0
7DC0
39E0
ENDCHAR
STARTCHAR udieresis
ENCODING 252
SWIDTH 42 0
DWIDTH 12 0
BBX 11 13 1 0
BITMAP
1980
1980
0000
F7C0
71C0
71C0
71C0
71C0
71C0
71C0
73C0
7DC0
39E0
ENDCHAR
STARTCHAR yacute
ENCODING 253
SWIDTH 42 0
DWIDTH 12 0
BBX 12 18 0 -4
BITMAP
0380
0600
0C00
0000
FCF0
7020
3840
3840
1C80
1C80
1F00
0F00
0E00
0600
0400
0800
1800
3000
ENDCHAR
STARTCHAR thorn
ENCODING 254
SWIDTH 42 0
DWIDTH 12 0
BBX 11 18 0 -4
BITMAP
F000
7000
7000
7000
7380
77C0
79E0
70E0
70E0
70E0
70E0
70C0
79C0
7780
7000
7000
7000
F800
ENDCHAR
STARTCHAR ydieresis
ENCODING 255
SWIDTH 42 0
DWIDTH 12 0
BBX 12 17 0 -4
BITMAP
1980
1980
0000
FCF0
7020
3840
3840
1C80
1C80
1F00
0F00
0E00
0600
0400
0800
1800
3000
ENDCHAR
STARTCHAR fl
ENCODING -1
SWIDTH 42 0
DWIDTH 13 0
BBX 12 14 1 0
BITMAP
0FE0
18E0
38E0
38E0
FEE0
38E0
38E0
38E0
38E0
38E0
38E0
38E0
38E0
FDF0
ENDCHAR
STARTCHAR endash
ENCODING -1
SWIDTH 42 0
DWIDTH 9 0
BBX 8 1 1 6
BITMAP
FF
ENDCHAR
STARTCHAR dagger
ENCODING -1
SWIDTH 42 0
DWIDTH 12 0
BBX 9 18 1 -4
BITMAP
1C00
1C00
1C00
1C00
1C00
1C00
FF80
DD80
1C00
1C00
1C00
1C00
1C00
1C00
1C00
1C00
1C00
1C00
ENDCHAR
STARTCHAR Zcaron
ENCODING -1
SWIDTH 42 0
DWIDTH 12 0
BBX 10 18 1 0
BITMAP
3300
1E00
0C00
0000
7FC0
43C0
4380
0780
0700
0F00
0E00
1C00
3C00
3800
7800
7040
F0C0
FFC0
ENDCHAR
STARTCHAR oe
ENCODING -1
SWIDTH 42 0
DWIDTH 18 0
BBX 16 10 1 0
BITMAP
1E3C
7346
61C7
E1C7
E1FF
E1C0
E1C0
61E0
73F1
1F3F
ENDCHAR
STARTCHAR Ydieresis
ENCODING -1
SWIDTH 42 0
DWIDTH 14 0
BBX 13 17 0 0
BITMAP
1980
1980
0000
FC38
7030
3820
3C60
1C40
1E80
0F80
0700
0700
0700
0700
0700
0700
1F80
ENDCHAR
STARTCHAR dotlessi
ENCODING -1
SWIDTH 42 0
DWIDTH 6 0
BBX 6 10 0 0
BITMAP
F8
38
38
38
38
38
38
38
38
FC
ENDCHAR
STARTCHAR lslash
ENCODING -1
SWIDTH 42 0
DWIDTH 6 0
BBX 7 14 0 0
BITMAP
F8
38
38
38
38
3E
38
78
B8
38
38
38
38
FE
ENDCHAR
STARTCHAR Lslash
ENCODING -1
SWIDTH 42 0
DWIDTH 11 0
BBX 11 14 0 0
BITMAP
FC00
3800
3800
3800
3A00
3C00
3800
F800
B800
3800
3800
3820
3820
FFE0
ENDCHAR
STARTCHAR daggerdbl
ENCODING -1
SWIDTH 42 0
DWIDTH 12 0
BBX 9 18 1 -4
BITMAP
1C00
1C00
1C00
1C00
1C00
1C00
FF80
DD80
1C00
1C00
1C00
1C00
FF80
DD80
1C00
1C00
1C00
1C00
ENDCHAR
STARTCHAR fi
ENCODING -1
SWIDTH 42 0
DWIDTH 13 0
BBX 13 14 0 0
BITMAP
1F70
3970
3970
3800
FFF0
3870
3870
3870
3870
3870
3870
3870
3870
FDF8
ENDCHAR
STARTCHAR guilsinglright
ENCODING -1
SWIDTH 42 0
DWIDTH 6 0
BBX 5 8 1 1
BITMAP
80
40
60
30
38
60
40
80
ENDCHAR
STARTCHAR OE
ENCODING -1
SWIDTH 42 0
DWIDTH 20 0
BBX 19 14 1 0
BITMAP
0FBFE0
387820
703820
703800
E03800
E03840
E03FC0
E03840
E03800
E03800
703800
703820
387820
0FBFE0
ENDCHAR
STARTCHAR emdash
ENCODING -1
SWIDTH 42 0
DWIDTH 19 0
BBX 17 1 1 5
BITMAP
FFFF80
ENDCHAR
STARTCHAR caron
ENCODING -1
SWIDTH 42 0
DWIDTH 12 0
BBX 6 3 3 11
BITMAP
CC
78
30
ENDCHAR
STARTCHAR ogonek
ENCODING -1
SWIDTH 42 0
DWIDTH 12 0
BBX 3 3 5 -4
BITMAP
40
80
E0
ENDCHAR
STARTCHAR hungarumlaut
ENCODING -1
SWIDTH 42 0
DWIDTH 12 0
BBX 7 3 3 11
BITMAP
36
68
90
ENDCHAR
STARTCHAR guilsinglleft
ENCODING -1
SWIDTH 42 0
DWIDTH 6 0
BBX 5 8 0 1
BITMAP
08
10
30
E0
60
30
10
08
ENDCHAR
STARTCHAR dotaccent
ENCODING -1
SWIDTH 42 0
DWIDTH 12 0
BBX 2 3 5 11
BITMAP
C0
C0
C0
ENDCHAR
STARTCHAR breve
ENCODING -1
SWIDTH 42 0
DWIDTH 12 0
BBX 7 3 2 11
BITMAP
82
7C
38
ENDCHAR
STARTCHAR bullet
ENCODING -1
SWIDTH 42 0
DWIDTH 12 0
BBX 7 7 2 2
BITMAP
38
7C
FE
FE
FE
7C
38
ENDCHAR
STARTCHAR tilde
ENCODING -1
SWIDTH 42 0
DWIDTH 12 0
BBX 6 3 3 11
BITMAP
64
FC
98
ENDCHAR
STARTCHAR circumflex
ENCODING -1
SWIDTH 42 0
DWIDTH 12 0
BBX 6 3 3 11
BITMAP
30
78
CC
ENDCHAR
STARTCHAR quotedblleft
ENCODING -1
SWIDTH 42 0
DWIDTH 9 0
BBX 7 5 1 9
BITMAP
66
CC
EE
EE
EE
ENDCHAR
STARTCHAR quotesingle
ENCODING -1
SWIDTH 42 0
DWIDTH 5 0
BBX 3 5 1 9
BITMAP
E0
E0
E0
40
40
ENDCHAR
STARTCHAR scaron
ENCODING -1
SWIDTH 42 0
DWIDTH 10 0
BBX 8 14 1 0
BITMAP
66
3C
18
00
3E
E2
E2
F0
FE
7F
0F
87
87
FC
ENDCHAR
STARTCHAR ring
ENCODING -1
SWIDTH 42 0
DWIDTH 12 0
BBX 3 3 4 11
BITMAP
E0
A0
E0
ENDCHAR
STARTCHAR quotesinglbase
ENCODING -1
SWIDTH 42 0
DWIDTH 5 0
BBX 3 7 1 -4
BITMAP
E0
E0
E0
60
60
60
C0
ENDCHAR
STARTCHAR florin
ENCODING -1
SWIDTH 42 0
DWIDTH 12 0
BBX 10 18 2 -4
BITMAP
03C0
0E40
0C40
1C00
1C00
3800
3800
7E00
3800
3800
7000
7000
7000
7000
7000
E000
E000
E000
ENDCHAR
STARTCHAR trademark
ENCODING -1
SWIDTH 42 0
DWIDTH 20 0
BBX 18 8 1 6
BITMAP
FF71C0
993B80
993B80
183B80
183D80
182D80
182D80
3C61C0
ENDCHAR
STARTCHAR fraction
ENCODING -1
SWIDTH 42 0
DWIDTH 1 0
BBX 12 14 -4 0
BITMAP
0070
0060
00C0
01C0
0180
0300
0700
0E00
0C00
1800
3800
3000
6000
E000
ENDCHAR
STARTCHAR grave
ENCODING -1
SWIDTH 42 0
DWIDTH 12 0
BBX 5 3 3 11
BITMAP
E0
30
18
ENDCHAR
STARTCHAR perthousand
ENCODING -1
SWIDTH 42 0
DWIDTH 22 0
BBX 23 14 0 0
BITMAP
380600
440800
C61000
C62000
C64000
44C000
398000
033838
064444
04C6C6
08C6C6
10C6C6
204444
C03838
ENDCHAR
STARTCHAR ellipsis
ENCODING -1
SWIDTH 42 0
DWIDTH 19 0
BBX 15 2 2 0
BITMAP
C186
C186
ENDCHAR
STARTCHAR quotedblright
ENCODING -1
SWIDTH 42 0
DWIDTH 9 0
BBX 7 5 1 9
BITMAP
EE
EE
EE
66
CC
ENDCHAR
STARTCHAR Scaron
ENCODING -1
SWIDTH 42 0
DWIDTH 11 0
BBX 9 18 1 0
BITMAP
6600
3C00
1800
0000
3F00
7100
E100
E000
F000
F800
7E00
1F00
0780
0380
0380
8380
C700
FE00
ENDCHAR
STARTCHAR quotedblbase
ENCODING -1
SWIDTH 42 0
DWIDTH 9 0
BBX 7 7 1 -4
BITMAP
EE
EE
EE
66
66
66
CC
ENDCHAR
STARTCHAR zcaron
ENCODING -1
SWIDTH 42 0
DWIDTH 11 0
BBX 9 14 1 0
BITMAP
3300
1E00
0C00
0000
FF80
C780
8F00
0E00
1E00
3C00
7800
7080
F080
FF80
ENDCHAR
ENDFONT
